<svg role="img" viewBox="0 0 24 24" xmlns="http://www.w3.org/2000/svg" fill="#2496ED">
  <path d="M13.983 11.078h2.119a.186.186 0 00.186-.185V9.006a.186.186 0 00-.186-.186h-2.119a.185.185 0 00-.185.185v1.888c0 .102.083.185.185.185m-2.954-5.43h2.118a.186.186 0 00.186-.186V3.574a.186.186 0 00-.186-.185h-2.118a.185.185 0 00-.185.185v1.888c0 .102.082.185.185.185m0 2.716h2.118a.187.187 0 00.186-.186V6.29a.186.186 0 00-.186-.185h-2.118a.185.185 0 00-.185.185v1.887c0 .102.082.186.185.186m-2.93 0h2.12a.186.186 0 00.184-.186V6.29a.185.185 0 00-.185-.185H8.1a.185.185 0 00-.185.185v1.887c0 .102.083.186.185.186m-2.964 0h2.119a.186.186 0 00.185-.186V6.29a.185.185 0 00-.185-.185H5.136a.186.186 0 00-.186.185v1.887c0 .102.084.186.186.186m5.893 2.715h2.118a.186.186 0 00.186-.185V9.006a.186.186 0 00-.186-.186h-2.118a.185.185 0 00-.185.185v1.888c0 .102.082.185.185.185m-2.93 0h2.12a.185.185 0 00.184-.185V9.006a.185.185 0 00-.184-.186h-2.12a.185.185 0 00-.184.185v1.888c0 .102.083.185.185.185m-2.964 0h2.119a.185.185 0 00.185-.185V9.006a.185.185 0 00-.184-.186h-2.12a.186.186 0 00-.186.186v1.887c0 .102.084.185.186.185m0 2.715h2.119a.185.185 0 00.185-.185v-1.888a.185.185 0 00-.185-.185h-2.12a.185.185 0 00-.184.185v1.888c0 .102.083.185.185.185m2.964 0h2.12a.185.185 0 00.184-.185v-1.888a.185.185 0 00-.184-.185h-2.12a.185.185 0 00-.184.185v1.888c0 .102.083.185.185.185m-5.893 0h2.119a.185.185 0 00.185-.185v-1.888a.185.185 0 00-.185-.185h-2.12a.185.185 0 00-.184.185v1.888c0 .102.083.185.185.185m-2.965 0h2.12a.185.185 0 00.184-.185v-1.888a.185.185 0 00-.184-.185h-2.12a.185.185 0 00-.185.185v1.888c0 .102.084.185.186.185m0-2.715h2.12a.185.185 0 00.184-.185V9.006a.185.185 0 00-.184-.186h-2.12a.185.185 0 00-.185.185v1.888c0 .102.084.185.186.185m16.846 0h2.12a.186.186 0 00.185-.185V9.006a.186.186 0 00-.185-.186h-2.12a.185.185 0 00-.185.185v1.888c0 .102.083.185.185.185m0 2.715h2.12a.185.185 0 00.185-.185v-1.888a.185.185 0 00-.185-.185h-2.12a.185.185 0 00-.185.185v1.888c0 .102.083.185.185.185m-2.93 0h2.12a.185.185 0 00.184-.185v-1.888a.185.185 0 00-.184-.185h-2.12a.185.185 0 00-.185.185v1.888c0 .102.083.185.185.185m0 2.715h2.12a.185.185 0 00.184-.185v-1.888a.185.185 0 00-.184-.185h-2.12a.185.185 0 00-.185.185v1.888c0 .102.083.185.185.185m2.93 0h2.12a.185.185 0 00.185-.185v-1.888a.185.185 0 00-.185-.185h-2.12a.185.185 0 00-.185.185v1.888c0 .102.083.185.185.185m-5.894 0h2.119a.185.185 0 00.185-.185v-1.888a.185.185 0 00-.185-.185h-2.12a.185.185 0 00-.184.185v1.888c0 .102.083.185.185.185m-2.93 0h2.12a.185.185 0 00.184-.185v-1.888a.185.185 0 00-.184-.185h-2.12a.185.185 0 00-.184.185v1.888c0 .102.083.185.185.185m0-2.715h2.12a.185.185 0 00.184-.185v-1.888a.185.185 0 00-.184-.185h-2.12a.185.185 0 00-.184.185v1.888c0 .102.083.185.185.185m-2.964 0h2.119a.185.185 0 00.185-.185v-1.888a.185.185 0 00-.185-.185h-2.12a.185.185 0 00-.184.185v1.888c0 .102.083.185.185.185m0 2.715h2.119a.185.185 0 00.185-.185v-1.888a.185.185 0 00-.185-.185h-2.12a.185.185 0 00-.184.185v1.888c0 .102.083.185.185.185m0 2.715h2.119a.185.185 0 00.185-.186v-1.888a.185.185 0 00-.185-.185h-2.12a.185.185 0 00-.184.185v1.888c0 .102.083.185.185.185m-2.93 0h2.12a.185.185 0 00.184-.186v-1.888a.185.185 0 00-.184-.185h-2.12a.185.185 0 00-.184.185v1.888c0 .102.083.185.185.185m0-2.715h2.12a.185.185 0 00.184-.185v-1.888a.185.185 0 00-.184-.185h-2.12a.185.185 0 00-.184.185v1.888c0 .102.083.185.185.185m0-2.715h2.12a.185.185 0 00.184-.185v-1.888a.185.185 0 00-.184-.185h-2.12a.185.185 0 00-.184.185v1.888c0 .102.083.185.185.185m0-2.715h2.12a.186.186 0 00.184-.185V9.006a.186.186 0 00-.184-.186h-2.12a.185.185 0 00-.184.185v1.888c0 .102.083.185.185.185"/>
</svg>
