<svg role="img" viewBox="0 0 24 24" xmlns="http://www.w3.org/2000/svg" fill="#E0234E">
  <path d="M14.131.047c-.173 0-.334.037-.483.087.316.21.49.49.49.83 0 .54-.447.97-.997.97-.55 0-.997-.43-.997-.97 0-.34.174-.62.49-.83-.149-.05-.31-.087-.483-.087-.996 0-1.827.87-1.827 1.934 0 .42.114.815.308 1.15-.176.018-.348.05-.514.095C8.827 3.476 7.691 4.61 7.691 6.002c0 1.393 1.136 2.527 2.537 2.527.237 0 .467-.033.687-.088.06.174.13.342.222.497-.08.078-.162.153-.231.237-.467.565-.742 1.29-.742 2.07 0 1.756 1.425 3.18 3.18 3.18.766 0 1.472-.273 2.022-.726.15-.125.29-.267.412-.424.235.05.476.083.724.083 1.39 0 2.522-1.135 2.522-2.527 0-1.39-1.132-2.524-2.522-2.524-.24 0-.47.035-.69.09-.06-.176-.13-.344-.222-.5.08-.078.162-.152.231-.235.467-.566.742-1.29.742-2.07 0-1.757-1.425-3.182-3.18-3.182-.183 0-.36.024-.532.065-.11-.21-.185-.438-.185-.677 0-1.064.83-1.934 1.826-1.934zm1.761 2.93c.907 0 1.646.74 1.646 1.646 0 .907-.739 1.646-1.646 1.646-.906 0-1.645-.74-1.645-1.646 0-.907.739-1.646 1.645-1.646zm-3.522 4.093c-.907 0-1.645-.74-1.645-1.646 0-.907.738-1.646 1.645-1.646.907 0 1.646.74 1.646 1.646 0 .907-.74 1.646-1.646 1.646z"/>
</svg>
