<svg role="img" viewBox="0 0 24 24" xmlns="http://www.w3.org/2000/svg" fill="#40B5A4">
  <path d="M3.9 12.38c.033-.134.067-.268.1-.403-.033.134-.067.268-.1.403zm7.915-8.817c-.095.022-.19.042-.285.066.095-.024.19-.044.285-.066zM2.804 16.467l.103-.31-.103.31zm7.533-13.316c-.09.013-.18.027-.27.042.09-.015.18-.03.27-.042zM1.31 12.042c-.006.086-.01.165-.014.231.005-.066.009-.145.014-.231zm21.477.206a12 12 0 0 0-.887-4.577c-.007-.016-.017-.031-.025-.047a12.033 12.033 0 0 0-2.515-3.844l-.03-.03A12.033 12.033 0 0 0 8.948.567C8.886.544 8.823.524 8.76.507 8.688.488 8.615.472 8.54.458c-.033-.007-.065-.013-.098-.019a11.922 11.922 0 0 0-3.466-.17c-.103.01-.205.024-.306.04-.049.006-.097.013-.145.021-.088.014-.175.03-.263.048a11.994 11.994 0 0 0-3.356 1.302c-.005.003-.009.005-.014.008a12.046 12.046 0 0 0-1.054.697l-.03.024A12.01 12.01 0 0 0 .034 14.11c.005.092.012.184.023.275.006.05.013.1.02.15.017.1.038.199.06.298.013.056.026.111.04.167.027.1.058.2.09.298.017.052.035.103.054.155.04.11.084.22.13.328.018.042.035.083.053.124.058.127.122.252.19.375.016.028.03.057.045.085.077.137.161.27.25.403.013.02.026.038.04.057.101.15.21.295.323.437.012.014.023.029.034.044.12.15.247.294.38.435.01.012.022.023.033.034.138.145.284.284.434.42.012.011.024.021.036.032.154.137.314.268.48.394.013.01.026.02.04.03.166.124.338.241.514.353.015.01.03.02.046.03.18.112.365.216.555.313.018.01.037.018.056.027.19.096.385.184.583.266.022.01.044.018.066.027.2.082.405.155.612.222.024.008.048.015.072.023.215.068.433.128.654.18.02.005.041.01.062.014.228.052.46.095.693.13.02.003.04.006.06.009.248.035.499.062.752.08.011 0 .022.002.033.003.286.02.574.03.864.03 1.74 0 3.416-.373 4.906-1.04l.03-.014a12.007 12.007 0 0 0 5.495-5.17l.015-.028c.118-.223.23-.45.335-.68.012-.026.024-.053.036-.08.1-.224.194-.452.28-.682.01-.025.018-.05.027-.076a12.016 12.016 0 0 0 .387-1.484c.006-.033.011-.066.017-.1.044-.247.08-.496.11-.747.003-.027.006-.054.009-.082zm-9.762 6.964c-2.764 0-5.007-2.244-5.007-5.008 0-2.764 2.243-5.007 5.007-5.007s5.007 2.243 5.007 5.007c0 2.764-2.243 5.008-5.007 5.008z"/>
</svg>
